# Blender v2.74 (sub 0) OBJ File: 'IPARA_PROTOTYPE.blend'
# www.blender.org
mtllib 2_RightTop.mtl
o WPTopFrontAngledBtn_Plane.072
v 0.615424 1.000966 -3.280000
v 0.615424 1.000966 -3.880000
v 0.015424 1.000966 -3.280000
v 0.015424 1.000966 -3.880000
vn 0.000000 1.000000 0.000000
usemtl Btn2
s off
f 1//1 2//1 4//1 3//1
o WPTopFrontAngled_Plane.004
v -5.000000 1.000000 -2.000000
v 1.000000 1.000000 -2.000000
v -5.000000 1.000000 -4.000000
v 1.000000 1.000000 -4.000000
v -2.000000 1.000000 -2.000000
v 1.000000 1.000000 -3.000000
v -2.000000 1.000000 -3.000000
vn 0.000000 1.000000 0.000000
usemtl SideEdge
s off
f 10//2 8//2 7//2
