# Blender v2.74 (sub 0) OBJ File: 'IPARA_PROTOTYPE.blend'
# www.blender.org
mtllib 7_PlainBack.mtl
o WPBackPlainBtn_Plane.077
v -1.700000 -0.300000 4.010000
v -1.700000 0.300000 4.010000
v -2.300000 -0.300000 4.010000
v -2.300000 0.300000 4.010000
vn 0.000000 0.000000 1.000000
usemtl Btn7
s off
f 1//1 2//1 4//1 3//1
o WPBackPlain_Plane.014
v -5.000000 -1.000000 4.000000
v 1.000000 -1.000000 4.000000
v -5.000000 1.000000 4.000000
v 1.000000 1.000000 4.000000
vn 0.000000 0.000000 1.000000
usemtl SideEdge
s off
f 5//2 6//2 8//2 7//2
