# Blender v2.74 (sub 0) OBJ File: 'IPARA_PROTOTYPE.blend'
# www.blender.org
mtllib X_Bottom.mtl
o WPBottomBackAngledFrontAngledWire_Plane.069
v -5.000000 -1.000000 4.000000
v -5.000000 -1.000000 -4.000000
v -5.000000 -1.000000 -3.000000
v 1.000000 -1.000000 -3.000000
v -5.000000 -1.000000 3.000000
v 1.000000 -1.000000 3.000000
v -5.000000 -1.010000 4.000000
v -5.000000 -1.010000 -4.000000
v -5.000000 -1.010000 -3.000000
v 1.000000 -1.010000 -3.000000
v -5.000000 -1.010000 3.000000
v 1.000000 -1.010000 3.000000
vn -1.000000 0.000000 0.000000
vn 1.000000 0.000000 0.000000
usemtl Material
s off
f 1//1 5//1 11//1 7//1
f 2//2 3//2 9//2 8//2
f 3//2 5//2 11//2 9//2
f 6//1 4//1 10//1 12//1
o WPBottomBackAngled_Plane.003
v -5.000000 -1.000000 4.000000
v 1.000000 -1.000000 4.000000
v 1.000000 -1.000000 3.000000
v -2.000000 -1.000000 3.000000
vn 0.000000 -1.000000 0.000000
usemtl SideEdge
s off
f 13//3 15//3 14//3
o WPBottomFrontAngled_Plane.006
v -5.000000 -1.000000 -2.000000
v 1.000000 -1.000000 -2.000000
v -5.000000 -1.000000 -4.000000
v 1.000000 -1.000000 -4.000000
v -2.000000 -1.000000 -2.000000
v 1.000000 -1.000000 -3.000000
v -2.000000 -1.000000 -3.000000
vn 0.000000 -1.000000 0.000000
usemtl SideEdge
s off
f 22//4 19//4 20//4
